<?xml version="1.0" encoding="UTF-8" standalone="no"?>
<!DOCTYPE svg PUBLIC "-//W3C//DTD SVG 1.1//EN" "http://www.w3.org/Graphics/SVG/1.1/DTD/svg11.dtd">
<svg width="100%" height="100%" viewBox="0 0 256 256" version="1.1" xmlns="http://www.w3.org/2000/svg" xmlns:xlink="http://www.w3.org/1999/xlink" xml:space="preserve" xmlns:serif="http://www.serif.com/" style="fill-rule:evenodd;clip-rule:evenodd;stroke-linejoin:round;stroke-miterlimit:1.41421;">
    <g transform="matrix(1,0,0,1,-1073.34,0)">
        <g id="Artboard1" transform="matrix(1,0,0,1,1073.34,0)">
            <rect x="0" y="0" width="256" height="256" style="fill:none;"/>
            <g transform="matrix(1,0,0,1,5.68434e-14,-7.38714)">
                <g transform="matrix(1,0,0,1,-1073.34,7.38714)">
                    <g>
                        <path d="M1176.12,149.707C1172.22,149.223 1168.24,147.463 1164.83,144.376C1148.3,129.42 1139,125.4 1124.39,118.428C1087.53,100.845 1086.66,48 1086.66,48C1086.66,48 1137.47,83.194 1174.18,88C1176.09,88.25 1177.85,88.591 1179.46,89.015C1178.58,90.013 1177.8,91.103 1177.13,92.23C1176.88,92.656 1176.64,93.088 1176.41,93.527C1176.14,94.052 1175.88,94.584 1175.64,95.124C1169.03,109.963 1171.56,126.793 1174.62,142.553C1175.08,144.945 1175.57,147.335 1176.12,149.707Z" style="fill:white;"/>
                    </g>
                </g>
                <g transform="matrix(-1,0,-0,1,1329.34,7.38714)">
                    <g>
                        <path d="M1176.12,149.707C1172.22,149.223 1168.24,147.463 1164.83,144.376C1148.3,129.42 1139,125.4 1124.39,118.428C1087.53,100.845 1086.66,48 1086.66,48C1086.66,48 1137.47,83.194 1174.18,88C1176.09,88.25 1177.85,88.591 1179.46,89.015C1178.58,90.013 1177.8,91.103 1177.13,92.23C1176.88,92.656 1176.64,93.088 1176.41,93.527C1176.14,94.052 1175.88,94.584 1175.64,95.124C1169.03,109.963 1171.56,126.793 1174.62,142.553C1175.08,144.945 1175.57,147.335 1176.12,149.707Z" style="fill:white;"/>
                    </g>
                </g>
            </g>
            <g transform="matrix(1,0,0,1,-1073.34,0)">
                <path d="M1221.12,167.166C1223.16,167.026 1225.22,166.949 1227.27,166.933C1236.55,166.904 1245.76,168.132 1254.68,170.481L1254.63,170.722C1249.23,195.541 1229.37,214.777 1205.47,219.77L1205.43,219.546C1204.83,216.79 1204.43,213.719 1202.49,212.47C1198.56,209.946 1197.18,219.783 1197.18,219.783C1172.65,214.797 1152.63,194.46 1148.03,170.5C1159.03,167.571 1170.48,166.44 1181.81,167.213C1182.37,168.407 1189.72,184.018 1201.34,184C1211.21,183.984 1217.43,175.369 1221.12,167.166Z" style="fill:white;"/>
            </g>
            <g transform="matrix(1,0,0,1,-1073.34,0)">
                <path d="M1189.34,88C1189.61,74.216 1212.58,73.844 1213.34,88C1221.27,87.854 1233.23,103.726 1221.98,152C1220.09,160.081 1213.29,179.989 1201.34,180C1189.17,180.011 1182.81,160.206 1180.8,152C1168.96,103.769 1181.05,88.017 1189.34,88ZM1194.32,94.048C1193.51,102.241 1196.42,108.159 1201.34,112.892C1206.26,108.202 1209.14,102.392 1208.35,94.047L1201.34,104.174L1194.32,94.048Z" style="fill:white;"/>
            </g>
        </g>
    </g>
</svg>
