<?xml version="1.0" encoding="UTF-8" standalone="no"?>
<!DOCTYPE svg PUBLIC "-//W3C//DTD SVG 1.1//EN" "http://www.w3.org/Graphics/SVG/1.1/DTD/svg11.dtd">
<svg width="100%" height="100%" viewBox="0 0 512 512" version="1.1" xmlns="http://www.w3.org/2000/svg" xmlns:xlink="http://www.w3.org/1999/xlink" xml:space="preserve" xmlns:serif="http://www.serif.com/" style="fill-rule:evenodd;clip-rule:evenodd;stroke-linejoin:round;stroke-miterlimit:1.41421;">
    <g transform="matrix(1,0,0,1,-2803.22,-0.321762)">
        <g id="Icon" transform="matrix(0.842105,0,0,0.820513,2089.11,-78.4475)">
            <rect x="848" y="96" width="608" height="624" style="fill:none;"/>
            <g transform="matrix(1,0,0,1,-5.1152,14.6494)">
                <g transform="matrix(1.1875,0,0,1.21875,870.888,-70.3715)">
                    <path d="M270.343,431.513C269.708,435.881 269.147,439.845 267.265,443.466L288.452,486.019C297.442,480.201 300.5,474.764 300.5,474.764L300.5,474.471L270.343,431.513Z" style="fill:white;fill-rule:nonzero;"/>
                    <path d="M249.157,458.741L252.065,499.272C258.228,498.521 263.866,497.166 268.956,495.465L256.628,454.892C254.471,456.233 251.999,457.514 249.157,458.741Z" style="fill:white;fill-rule:nonzero;"/>
                    <path d="M258.661,453.538L271.165,494.691C277.124,492.517 282.277,489.893 286.579,487.272L266.292,445.885C264.462,448.636 261.998,451.176 258.661,453.538Z" style="fill:white;fill-rule:nonzero;"/>
                    <path d="M241.448,461.636C239.511,460.999 237.71,460.346 236.018,459.678L233.159,499.522C235.829,499.775 238.591,499.918 241.448,499.922C244.305,499.917 247.066,499.775 249.737,499.522L246.878,459.678C245.186,460.346 243.385,460.999 241.448,461.636Z" style="fill:white;fill-rule:nonzero;"/>
                    <path d="M210.605,431.513L178.5,474.473L178.5,474.766C178.5,474.766 184.282,480.203 193.272,486.021L214.131,443.468C212.248,439.845 211.24,435.881 210.605,431.513Z" style="fill:white;fill-rule:nonzero;"/>
                    <path d="M226.268,454.892L213.94,495.465C219.03,497.166 224.667,498.521 230.831,499.272L233.739,458.741C230.896,457.514 228.424,456.233 226.268,454.892Z" style="fill:white;fill-rule:nonzero;"/>
                    <path d="M216.603,445.886L196.316,487.273C200.618,489.894 205.771,492.518 211.73,494.692L224.234,453.539C220.897,451.176 218.433,448.636 216.603,445.886Z" style="fill:white;fill-rule:nonzero;"/>
                </g>
                <g transform="matrix(1.1875,0,0,1.21875,870.888,-70.3715)">
                    <path d="M284.381,354.581C284.432,356.077 284.435,357.611 284.39,359.182C313.396,358.899 351.241,356.927 393.339,350.73C399.684,340.036 404.322,329.57 407.045,319.733C401.612,322.064 395.998,324.232 390.193,326.223C349.901,340.049 312.983,348.952 284.381,354.581Z" style="fill:white;fill-rule:nonzero;"/>
                    <path d="M351.162,401.66C323.787,393.069 300.366,384.133 282.316,376.609C282.112,377.647 281.893,378.695 281.661,379.751C295.753,389.838 313.11,401.389 333.25,413.134C339.569,410.591 345.323,406.737 351.162,401.66Z" style="fill:white;fill-rule:nonzero;"/>
                    <path d="M284.244,362.301C284.152,363.722 284.027,365.168 283.864,366.643C307.683,371.294 338.235,376.104 372.994,378.939C380,370.699 386.109,362.389 391.235,354.187C349.928,360.125 312.811,362.029 284.244,362.301Z" style="fill:white;fill-rule:nonzero;"/>
                    <path d="M276.721,398.679C276.151,401.165 275.686,403.577 275.306,405.913C276.677,406.826 278.357,407.851 280.335,408.897C279.051,405.415 277.849,402.008 276.721,398.679Z" style="fill:white;fill-rule:nonzero;"/>
                    <path d="M367.934,384.709C368.792,383.761 369.635,382.81 370.47,381.859C336.628,379 306.848,374.299 283.476,369.742C283.305,370.97 283.112,372.214 282.895,373.474C301.33,381.177 325.511,390.41 353.862,399.235C358.344,395.08 362.937,390.229 367.934,384.709Z" style="fill:white;fill-rule:nonzero;"/>
                    <path d="M329.406,414.495C310.638,403.449 294.333,392.613 280.9,383.039C280.627,384.163 280.341,385.297 280.039,386.44C287.563,395.691 296.345,405.84 306.374,416.438C315.254,417.241 322.694,416.557 329.406,414.495Z" style="fill:white;fill-rule:nonzero;"/>
                    <path d="M301.53,415.834C293.116,406.816 285.611,398.152 279.025,390.124C278.844,390.754 278.659,391.387 278.47,392.022C278.361,392.389 278.259,392.752 278.155,393.117C280.001,398.784 282.068,404.709 284.389,410.85C288.989,412.878 294.719,414.763 301.53,415.834Z" style="fill:white;fill-rule:nonzero;"/>
                    <path d="M379.75,293.058C388.287,287.693 395.999,282.125 402.986,276.423C401.575,274.39 399.943,272.486 398.08,270.726C383.007,256.491 367.655,259.282 367.655,259.282C367.655,259.282 359.717,288.524 313.568,314.576C312.01,315.456 307.416,316.338 306.095,316.805C299.44,319.156 292.249,323.923 293.384,329.202C293.914,331.667 287.746,336.508 282.022,340.371C282.498,341.784 282.896,343.264 283.228,344.8C309.725,332.83 343.645,315.744 379.75,293.058Z" style="fill:white;fill-rule:nonzero;"/>
                    <path d="M283.802,347.961C283.969,349.092 284.099,350.253 284.198,351.439C312.617,345.83 349.227,336.982 389.181,323.272C395.817,320.995 402.079,318.527 408.013,315.908C411.263,301.753 410.358,289.058 404.662,279.079C397.473,284.93 389.724,290.475 381.409,295.7C344.856,318.668 310.518,335.925 283.802,347.961Z" style="fill:white;fill-rule:nonzero;"/>
                </g>
                <g transform="matrix(1.1875,0,0,1.21875,870.888,-70.3715)">
                    <path d="M198.514,354.581C198.463,356.077 198.46,357.611 198.505,359.182C169.499,358.899 131.654,356.927 89.556,350.73C83.211,340.036 78.573,329.57 75.85,319.733C81.283,322.064 86.897,324.232 92.702,326.223C132.995,340.049 169.912,348.952 198.514,354.581Z" style="fill:white;fill-rule:nonzero;"/>
                    <path d="M131.734,401.66C159.109,393.069 182.53,384.133 200.58,376.609C200.784,377.647 201.003,378.695 201.235,379.751C187.143,389.838 169.786,401.389 149.646,413.134C143.326,410.591 137.572,406.737 131.734,401.66Z" style="fill:white;fill-rule:nonzero;"/>
                    <path d="M198.651,362.301C198.743,363.722 198.868,365.168 199.031,366.643C175.212,371.294 144.66,376.104 109.901,378.939C102.895,370.699 96.786,362.389 91.66,354.187C132.967,360.125 170.084,362.029 198.651,362.301Z" style="fill:white;fill-rule:nonzero;"/>
                    <path d="M206.174,398.679C206.744,401.165 207.209,403.577 207.589,405.913C206.218,406.826 204.538,407.851 202.56,408.897C203.844,405.415 205.046,402.008 206.174,398.679Z" style="fill:white;fill-rule:nonzero;"/>
                    <path d="M114.962,384.709C114.104,383.761 113.261,382.81 112.426,381.859C146.268,379 176.048,374.299 199.42,369.742C199.591,370.97 199.784,372.214 200.001,373.474C181.566,381.177 157.385,390.41 129.034,399.235C124.551,395.08 119.958,390.229 114.962,384.709Z" style="fill:white;fill-rule:nonzero;"/>
                    <path d="M153.489,414.495C172.257,403.449 188.562,392.613 201.995,383.039C202.268,384.163 202.554,385.297 202.856,386.44C195.332,395.691 186.55,405.84 176.521,416.438C167.642,417.241 160.201,416.557 153.489,414.495Z" style="fill:white;fill-rule:nonzero;"/>
                    <path d="M181.366,415.834C189.78,406.816 197.285,398.152 203.871,390.124C204.052,390.754 204.237,391.387 204.426,392.022C204.535,392.389 204.637,392.752 204.741,393.117C202.895,398.784 200.829,404.709 198.507,410.85C193.907,412.878 188.177,414.763 181.366,415.834Z" style="fill:white;fill-rule:nonzero;"/>
                    <path d="M103.146,293.058C94.609,287.693 86.897,282.125 79.91,276.423C81.321,274.39 82.953,272.486 84.816,270.726C99.889,256.491 115.241,259.282 115.241,259.282C115.241,259.282 123.179,288.524 169.328,314.576C170.886,315.456 175.48,316.338 176.801,316.805C183.456,319.156 190.647,323.923 189.512,329.202C188.982,331.667 195.15,336.508 200.874,340.371C200.398,341.784 200,343.264 199.668,344.8C173.171,332.83 139.25,315.744 103.146,293.058Z" style="fill:white;fill-rule:nonzero;"/>
                    <path d="M199.093,347.961C198.926,349.092 198.796,350.253 198.697,351.439C170.278,345.83 133.668,336.982 93.714,323.272C87.078,320.995 80.816,318.527 74.882,315.908C71.632,301.753 72.537,289.058 78.233,279.079C85.422,284.93 93.171,290.475 101.486,295.7C138.039,318.668 172.378,335.925 199.093,347.961Z" style="fill:white;fill-rule:nonzero;"/>
                </g>
                <g transform="matrix(1.1875,0,0,1.21875,870.888,-70.3715)">
                    <path d="M254.738,326.458C253.091,319.577 248.194,314.575 242.414,314.575C242.092,314.575 241.763,314.575 241.448,314.612C241.134,314.575 240.804,314.575 240.482,314.575C234.702,314.575 229.805,319.577 228.158,326.458C201.016,329.408 197.224,356.202 207.755,391.554C218.237,426.745 202.333,446.212 241.449,459.068C280.565,446.212 264.66,426.745 275.143,391.554C285.672,356.202 281.88,329.408 254.738,326.458ZM244.789,330.351C244.753,330.825 244.686,331.286 244.636,331.755C244.514,332.686 244.349,333.602 244.163,334.513C243.783,336.332 243.302,338.117 242.735,339.875L241.453,343.848L240.162,339.874C239.591,338.117 239.111,336.331 238.73,334.512C238.544,333.601 238.379,332.684 238.257,331.753C238.15,330.817 238.034,329.884 238.036,328.912C238.607,329.698 239.059,330.522 239.521,331.344C239.968,332.17 240.372,333.102 240.754,333.949C241.002,334.505 241.223,335.08 241.45,335.651C241.677,335.08 241.898,334.505 242.146,333.95C242.529,333.103 242.933,332.217 243.379,331.391C243.614,330.981 243.831,330.544 244.079,330.139C244.325,329.733 244.576,329.317 244.86,328.924C244.861,329.409 244.827,329.878 244.789,330.351Z" style="fill:white;fill-rule:nonzero;"/>
                </g>
                <g transform="matrix(1.1875,0,0,1.21875,870.888,-70.3715)">
                    <path d="M375.495,196.832C375.495,196.832 376.526,197.622 378.524,199.152C379.523,199.917 380.763,200.867 382.238,201.996C382.975,202.56 383.771,203.17 384.623,203.823C385.048,204.151 385.487,204.491 385.941,204.841C386.376,205.215 386.824,205.601 387.285,205.998C390.948,209.208 395.654,212.976 400.633,218.003C401.905,219.231 403.224,220.506 404.59,221.825C405.938,223.162 407.229,224.645 408.615,226.124C409.987,227.617 411.403,229.157 412.861,230.743C413.225,231.14 413.592,231.539 413.962,231.941C414.308,232.364 414.657,232.789 415.008,233.218C415.71,234.075 416.422,234.944 417.143,235.825C418.586,237.587 420.068,239.397 421.588,241.253C423.092,243.122 424.471,245.161 425.972,247.181C427.432,249.231 429.015,251.269 430.47,253.464C431.894,255.68 433.349,257.944 434.834,260.255C435.575,261.412 436.324,262.581 437.08,263.761C437.768,264.982 438.464,266.215 439.166,267.46C440.57,269.951 442.001,272.49 443.458,275.076C444.764,277.742 446.094,280.455 447.446,283.216C448.112,284.601 448.825,285.98 449.468,287.405C450.072,288.847 450.681,290.301 451.294,291.767C451.908,293.233 452.526,294.711 453.15,296.201C453.759,297.696 454.448,299.175 454.95,300.738C456.036,303.834 457.139,306.976 458.257,310.165C458.857,311.747 459.288,313.394 459.762,315.041C460.232,316.689 460.706,318.349 461.183,320.02C461.654,321.693 462.153,323.371 462.61,325.072C462.991,326.792 463.375,328.523 463.762,330.265C464.148,332.008 464.537,333.762 464.929,335.527C465.123,336.41 465.317,337.296 465.512,338.185C465.653,339.084 465.794,339.985 465.936,340.889C466.498,344.507 467.068,348.17 467.643,351.875C467.999,355.609 468.359,359.385 468.723,363.204C468.797,364.16 468.942,365.114 468.959,366.079C468.992,367.043 469.026,368.009 469.059,368.978C469.126,370.916 469.193,372.865 469.26,374.823C470.1,406.076 464.447,440.533 449.605,473.387C446.04,481.657 441.643,489.671 437.019,497.667C432.144,505.51 427.018,513.358 421.104,520.745L418.92,523.547L417.824,524.949L416.663,526.301C415.113,528.105 413.56,529.913 412.002,531.726C410.486,533.577 408.758,535.244 407.126,537.007L404.641,539.624C403.815,540.5 402.989,541.379 402.101,542.198C398.601,545.524 395.171,548.962 391.426,552.086L388.665,554.488C387.744,555.29 386.831,556.105 385.855,556.844C383.933,558.361 382.008,559.881 380.078,561.404C378.18,562.97 376.124,564.334 374.128,565.786L371.111,567.94C370.108,568.665 369.101,569.385 368.046,570.037C365.962,571.379 363.874,572.724 361.782,574.071L360.212,575.082L358.598,576.023L355.357,577.896L352.11,579.772L350.483,580.709L348.812,581.569C346.583,582.716 344.35,583.866 342.114,585.017C341.006,585.613 339.862,586.139 338.711,586.652L335.268,588.218C332.963,589.244 330.693,590.367 328.318,591.249C325.964,592.183 323.607,593.118 321.246,594.054C318.882,594.982 316.446,595.724 314.044,596.57C309.256,598.322 304.294,599.565 299.382,601.013C296.907,601.668 294.396,602.196 291.899,602.79L288.145,603.659C286.892,603.942 285.618,604.129 284.354,604.368C281.821,604.822 279.286,605.276 276.747,605.731C274.196,606.102 271.631,606.398 269.069,606.735L265.222,607.226C263.936,607.362 262.644,607.435 261.354,607.542C258.773,607.74 256.189,607.938 253.603,608.136C251.012,608.242 248.416,608.282 245.82,608.358L241.923,608.459L241.374,608.47L240.892,608.458L239.927,608.434L237.997,608.387C235.423,608.324 232.848,608.26 230.27,608.197C227.673,608.058 225.048,607.822 222.436,607.637L218.511,607.341C217.206,607.224 215.918,607.027 214.619,606.874L206.839,605.89C186.183,602.629 165.794,596.81 146.703,588.013C108.43,570.633 75.251,542.429 52.067,508.185C40.544,491.036 31.186,472.576 24.815,453.34C21.456,443.78 19.057,433.98 17.028,424.203C16.189,419.279 15.183,414.398 14.678,409.462C14.388,407 14.025,404.551 13.798,402.094C13.616,399.632 13.434,397.175 13.253,394.723L12.992,391.049L12.906,387.374C12.849,384.927 12.793,382.485 12.737,380.049L12.727,379.592C12.722,379.329 12.733,379.259 12.735,379.084L12.76,378.18L12.81,376.373L12.909,372.765C12.997,370.358 12.974,367.981 13.218,365.55C13.611,360.716 13.878,355.882 14.594,351.161C14.918,348.793 15.186,346.422 15.555,344.074C15.982,341.735 16.409,339.402 16.834,337.075C20.289,318.464 26.255,300.798 33.789,284.462C35.572,280.327 37.745,276.414 39.758,272.462C40.734,270.468 41.912,268.594 43,266.68C44.108,264.777 45.211,262.882 46.31,260.993C47.497,259.158 48.679,257.33 49.857,255.51C51.044,253.696 52.17,251.851 53.462,250.129C55.996,246.653 58.372,243.104 61.074,239.844C71.507,226.522 83.026,214.808 95.07,204.772C107.119,194.736 119.673,186.349 132.25,179.585C144.829,172.816 157.388,167.62 169.476,163.694C170.986,163.198 172.483,162.705 173.968,162.217C175.475,161.8 176.969,161.386 178.451,160.976C181.422,160.186 184.306,159.268 187.22,158.687C190.117,158.041 192.961,157.407 195.752,156.784C198.57,156.3 201.334,155.826 204.043,155.361C206.742,154.838 209.425,154.58 212.038,154.256C213.345,154.099 214.639,153.943 215.918,153.79C217.196,153.633 218.46,153.471 219.718,153.409C224.744,153.1 229.524,152.608 234.084,152.633C236.361,152.591 238.577,152.55 240.73,152.51C242.906,152.508 244.972,152.634 247.001,152.687C249.024,152.76 250.983,152.83 252.878,152.899C253.826,152.914 254.756,152.996 255.67,153.088C256.584,153.172 257.482,153.254 258.363,153.335C260.124,153.496 261.82,153.652 263.449,153.801C265.076,153.957 266.642,154.06 268.12,154.315C271.084,154.751 273.776,155.148 276.187,155.503C278.605,155.809 280.709,156.274 282.529,156.645C284.349,157.015 285.881,157.327 287.114,157.578C289.58,158.08 290.852,158.339 290.852,158.339C290.852,158.339 289.575,158.103 287.1,157.646C285.863,157.418 284.327,157.134 282.501,156.797C280.676,156.46 278.568,156.033 276.146,155.772C273.733,155.461 271.038,155.115 268.071,154.733C266.592,154.505 265.029,154.431 263.404,154.305C261.779,154.186 260.087,154.062 258.33,153.933C257.452,153.869 256.557,153.803 255.646,153.736C254.736,153.661 253.809,153.596 252.859,153.599C250.963,153.563 249.003,153.526 246.979,153.488C244.961,153.463 242.855,153.365 240.732,153.397C238.588,153.466 236.381,153.537 234.114,153.609C229.575,153.645 224.821,154.2 219.827,154.574C218.576,154.652 217.322,154.83 216.052,155.004C214.782,155.174 213.498,155.346 212.2,155.52C209.606,155.878 206.944,156.169 204.267,156.726C201.582,157.224 198.843,157.733 196.05,158.251C193.287,158.907 190.47,159.575 187.603,160.256C184.719,160.87 181.867,161.822 178.93,162.646C177.466,163.073 175.989,163.503 174.5,163.936C173.033,164.441 171.555,164.95 170.064,165.462C146.217,173.532 120.539,186.872 96.878,206.93C85.064,216.941 73.793,228.597 63.615,241.817C60.977,245.051 58.665,248.572 56.196,252.016C54.937,253.723 53.843,255.551 52.688,257.348C51.543,259.151 50.393,260.961 49.239,262.777C48.172,264.646 47.101,266.522 46.026,268.406C44.97,270.3 43.825,272.153 42.881,274.125C40.933,278.034 38.824,281.899 37.105,285.984C29.826,302.119 24.106,319.53 20.866,337.834C20.467,340.122 20.067,342.416 19.666,344.716C19.322,347.024 19.08,349.354 18.781,351.681C18.094,356.337 17.862,361.02 17.494,365.723C17.263,368.056 17.295,370.482 17.217,372.877L17.133,376.485L17.091,378.292L17.07,379.196C17.069,379.322 17.057,379.553 17.066,379.592L17.078,380.04C17.144,382.43 17.21,384.826 17.276,387.227L17.374,390.832L17.646,394.435C20.071,432.952 33.29,471.985 56.058,505.469C59.01,509.577 61.854,513.778 65.081,517.705L67.437,520.699C67.833,521.196 68.216,521.703 68.623,522.191L69.873,523.631L74.876,529.399C76.562,531.308 78.376,533.103 80.12,534.962L82.762,537.73C83.665,538.631 84.605,539.496 85.526,540.381C87.382,542.135 89.212,543.919 91.092,545.652L96.896,550.672C104.757,557.219 112.952,563.433 121.688,568.832L124.93,570.908C126.024,571.579 127.151,572.195 128.26,572.841C130.49,574.112 132.706,575.412 134.949,576.662C139.539,578.965 144.043,581.45 148.773,583.464C167.433,592.096 187.369,597.812 207.576,601.035L215.188,602.007C216.456,602.159 217.724,602.355 218.991,602.47L222.791,602.761C225.328,602.943 227.845,603.178 230.394,603.32C232.971,603.387 235.547,603.454 238.121,603.521L241.016,603.596L241.498,603.609L241.914,603.597L245.73,603.503C248.272,603.432 250.814,603.397 253.351,603.298C255.883,603.107 258.413,602.916 260.94,602.726C262.203,602.623 263.469,602.554 264.728,602.423L268.494,601.946C271.002,601.619 273.514,601.334 276.012,600.975C278.497,600.533 280.98,600.091 283.46,599.65C284.697,599.417 285.945,599.237 287.172,598.962L290.848,598.116C293.293,597.536 295.753,597.026 298.179,596.398C302.993,594.998 307.858,593.806 312.553,592.108C314.908,591.289 317.299,590.575 319.617,589.675C321.933,588.767 324.246,587.861 326.555,586.956C328.886,586.103 331.112,585.011 333.376,584.015L336.757,582.496C337.887,581.999 339.01,581.489 340.098,580.908C342.294,579.789 344.487,578.672 346.676,577.556L348.317,576.72L349.915,575.807L353.105,573.981L356.29,572.159L357.877,571.243L359.42,570.258C361.477,568.946 363.53,567.636 365.579,566.328C366.616,565.693 367.607,564.991 368.593,564.284L371.56,562.183C373.523,560.766 375.547,559.439 377.414,557.91C379.313,556.424 381.209,554.941 383.1,553.461C384.061,552.74 384.959,551.944 385.866,551.161L388.585,548.816C392.274,545.767 395.652,542.406 399.102,539.157C399.978,538.358 400.791,537.498 401.605,536.641L404.054,534.083C405.663,532.36 407.365,530.729 408.87,528.926C410.414,527.159 411.954,525.396 413.49,523.637L414.642,522.319L415.729,520.951L417.896,518.217C423.767,511.009 428.863,503.338 433.723,495.668C438.331,487.845 442.724,479.998 446.297,471.89C453.65,455.78 458.989,439.263 462.174,422.886C465.407,406.518 466.752,390.385 466.458,374.877C466.407,372.941 466.357,371.016 466.307,369.1C466.282,368.142 466.257,367.187 466.232,366.234C466.224,365.28 466.088,364.337 466.022,363.392C465.694,359.615 465.369,355.879 465.047,352.186C464.508,348.518 463.974,344.893 463.448,341.311C463.315,340.415 463.183,339.523 463.051,338.633C462.869,337.752 462.688,336.874 462.508,335.998C462.144,334.247 461.783,332.507 461.424,330.778C461.065,329.048 460.708,327.33 460.354,325.623C459.924,323.934 459.452,322.267 459.008,320.605C458.558,318.944 458.111,317.294 457.667,315.656C457.22,314.018 456.815,312.38 456.241,310.806C455.175,307.632 454.125,304.503 453.09,301.422C452.614,299.865 451.95,298.392 451.366,296.901C450.768,295.416 450.174,293.942 449.585,292.48C448.996,291.018 448.412,289.567 447.832,288.128C447.213,286.706 446.524,285.33 445.882,283.946C444.576,281.188 443.293,278.476 442.032,275.812C440.619,273.225 439.232,270.685 437.871,268.193C437.19,266.946 436.516,265.711 435.848,264.489C435.112,263.306 434.384,262.135 433.663,260.976C432.217,258.658 430.801,256.388 429.415,254.165C427.997,251.963 426.45,249.917 425.025,247.857C423.558,245.827 422.213,243.778 420.742,241.898C419.254,240.03 417.803,238.209 416.39,236.436C415.683,235.549 414.986,234.674 414.299,233.81C413.955,233.378 413.614,232.95 413.275,232.524C412.912,232.118 412.552,231.716 412.195,231.316C410.764,229.717 409.375,228.164 408.028,226.659C406.667,225.166 405.411,223.66 404.091,222.304C402.753,220.964 401.461,219.671 400.215,218.423C395.337,213.317 390.718,209.48 387.115,206.206C386.661,205.801 386.22,205.407 385.793,205.026C385.346,204.668 384.913,204.32 384.494,203.984C383.653,203.316 382.869,202.692 382.142,202.114C380.688,200.959 379.465,199.986 378.48,199.203C376.511,197.641 375.495,196.832 375.495,196.832Z" style="fill:white;fill-rule:nonzero;"/>
                </g>
                <g transform="matrix(1.1875,0,0,1.21875,870.888,-70.3715)">
                    <path d="M366.62,208.926C366.62,208.926 367.577,209.671 369.432,211.113C370.359,211.834 371.511,212.73 372.88,213.794C373.564,214.326 374.303,214.901 375.095,215.516C375.49,215.825 375.897,216.145 376.319,216.476C376.722,216.828 377.138,217.191 377.566,217.566C380.963,220.588 385.324,224.133 389.934,228.858C391.112,230.012 392.333,231.21 393.598,232.45C394.846,233.706 396.038,235.1 397.323,236.486C398.595,237.885 399.908,239.327 401.259,240.812C401.597,241.183 401.937,241.558 402.28,241.934C402.601,242.33 402.923,242.728 403.249,243.129C403.899,243.932 404.559,244.745 405.227,245.57C406.564,247.22 407.936,248.913 409.344,250.65C410.737,252.399 412.012,254.307 413.401,256.196C414.751,258.114 416.217,260.02 417.562,262.071C418.878,264.142 420.223,266.259 421.595,268.419C422.28,269.5 422.972,270.592 423.67,271.695C424.305,272.836 424.947,273.988 425.595,275.151C426.891,277.478 428.211,279.849 429.556,282.263C430.759,284.751 431.984,287.284 433.23,289.861C433.843,291.154 434.501,292.44 435.092,293.769C435.647,295.114 436.207,296.471 436.771,297.838C437.335,299.205 437.904,300.584 438.477,301.973C439.037,303.367 439.671,304.746 440.131,306.203C441.127,309.089 442.138,312.018 443.163,314.989C443.714,316.463 444.107,317.998 444.54,319.533C444.97,321.068 445.402,322.614 445.838,324.171C446.27,325.729 446.704,327.297 447.141,328.876C447.487,330.477 447.836,332.089 448.187,333.711C448.538,335.333 448.891,336.966 449.247,338.609C449.423,339.431 449.6,340.255 449.777,341.082C449.905,341.918 450.033,342.757 450.162,343.598C450.673,346.964 451.19,350.37 451.713,353.816C452.031,357.288 452.353,360.799 452.679,364.35C452.886,366.123 452.921,367.916 452.972,369.717C453.028,371.518 453.083,373.329 453.139,375.15C453.485,389.705 452.291,404.928 449.317,420.355C446.389,435.792 441.433,451.38 434.572,466.601C431.238,474.261 427.133,481.681 422.819,489.08C418.271,496.337 413.494,503.597 407.987,510.425L405.954,513.015L404.934,514.311L403.853,515.56C402.411,517.227 400.965,518.898 399.515,520.573C398.103,522.282 396.5,523.826 394.985,525.457L392.679,527.878C391.912,528.689 391.146,529.503 390.322,530.26C387.073,533.337 383.891,536.518 380.416,539.408L377.854,541.63C376.999,542.372 376.153,543.125 375.247,543.809C373.464,545.211 371.678,546.617 369.888,548.025C368.128,549.474 366.22,550.733 364.369,552.076L361.571,554.068C360.641,554.738 359.707,555.404 358.729,556.006C356.796,557.246 354.86,558.489 352.92,559.734L351.464,560.668L349.967,561.538L346.962,563.268L343.952,565.001L342.444,565.867L340.895,566.661C338.829,567.721 336.759,568.782 334.686,569.845C333.659,570.396 332.599,570.881 331.532,571.354L328.341,572.799C326.204,573.746 324.102,574.783 321.901,575.596C319.72,576.457 317.536,577.32 315.349,578.183C313.159,579.039 310.902,579.722 308.676,580.502C304.241,582.118 299.644,583.26 295.094,584.595C292.801,585.197 290.476,585.683 288.164,586.234L284.688,587.038C283.528,587.3 282.348,587.472 281.178,587.694C278.833,588.114 276.485,588.535 274.135,588.956C271.773,589.299 269.398,589.572 267.026,589.884L263.464,590.338C262.274,590.464 261.077,590.531 259.882,590.63C257.492,590.813 255.1,590.996 252.705,591.179C250.306,591.276 247.902,591.313 245.498,591.383L241.89,591.476C240.665,591.491 239.481,591.429 238.274,591.409C235.871,591.35 233.465,591.29 231.059,591.23C228.651,591.1 226.241,590.881 223.829,590.711L220.211,590.438C219.006,590.33 217.811,590.147 216.61,590.005L209.407,589.094C190.284,586.071 171.41,580.683 153.738,572.536C118.305,556.452 87.579,530.344 66.109,498.641C44.587,466.955 32.245,429.98 30.038,393.603C28.734,375.424 30.065,357.409 33.247,340.171C36.388,322.909 41.861,306.508 48.796,291.329C50.436,287.486 52.44,283.85 54.294,280.175C55.193,278.322 56.28,276.579 57.284,274.799C58.305,273.029 59.323,271.266 60.337,269.51C61.432,267.803 62.524,266.103 63.611,264.409C64.707,262.721 65.746,261.005 66.939,259.402C69.28,256.168 71.474,252.864 73.972,249.828C83.615,237.424 94.276,226.504 105.434,217.138C116.595,207.769 128.244,199.942 139.905,193.594C151.569,187.24 163.228,182.344 174.459,178.633C175.862,178.164 177.253,177.698 178.633,177.236C180.034,176.841 181.423,176.449 182.8,176.06C185.562,175.31 188.243,174.441 190.953,173.887C193.647,173.272 196.293,172.667 198.889,172.074C201.511,171.61 204.083,171.155 206.604,170.709C209.116,170.208 211.613,169.956 214.047,169.641C215.264,169.488 216.469,169.337 217.659,169.188C218.849,169.035 220.026,168.878 221.198,168.815C225.879,168.503 230.333,168.021 234.583,168.023C236.705,167.973 238.771,167.924 240.779,167.876C242.79,167.864 244.735,167.971 246.626,168.01C248.515,168.065 250.345,168.118 252.115,168.169C253.001,168.176 253.868,168.246 254.72,168.325C255.572,168.397 256.409,168.467 257.231,168.536C258.874,168.674 260.456,168.807 261.976,168.935C263.495,169.069 264.955,169.154 266.336,169.382C269.104,169.768 271.62,170.119 273.872,170.434C276.132,170.702 278.098,171.122 279.799,171.455C281.501,171.788 282.933,172.068 284.086,172.294C286.392,172.745 287.582,172.978 287.582,172.978C287.582,172.978 286.391,172.749 284.084,172.305C282.93,172.083 281.498,171.807 279.795,171.48C278.093,171.152 276.126,170.739 273.866,170.478C271.613,170.171 269.098,169.828 266.329,169.45C264.948,169.227 263.488,169.147 261.97,169.017C260.451,168.894 258.87,168.766 257.227,168.633C256.406,168.567 255.569,168.499 254.717,168.43C253.866,168.354 252.999,168.287 252.113,168.282C250.343,168.236 248.513,168.189 246.623,168.14C244.734,168.107 242.783,168.006 240.78,168.024C238.774,168.078 236.71,168.133 234.589,168.19C230.343,168.201 225.894,168.698 221.218,169.024C220.047,169.091 218.872,169.252 217.684,169.408C216.495,169.561 215.292,169.716 214.077,169.872C211.647,170.194 209.154,170.454 206.646,170.962C204.13,171.415 201.563,171.878 198.946,172.35C196.355,172.95 193.715,173.562 191.027,174.185C188.323,174.747 185.648,175.623 182.893,176.38C181.519,176.772 180.134,177.168 178.736,177.567C177.36,178.032 175.972,178.502 174.573,178.975C152.192,186.413 128.042,198.794 105.779,217.55C94.659,226.904 84.038,237.807 74.435,250.187C71.947,253.216 69.763,256.514 67.432,259.741C66.244,261.34 65.209,263.053 64.119,264.737C63.037,266.427 61.951,268.123 60.86,269.826C59.851,271.578 58.838,273.338 57.822,275.103C56.824,276.879 55.741,278.617 54.847,280.466C53.003,284.132 51.008,287.759 49.378,291.592C42.481,306.733 37.042,323.087 33.931,340.296C33.548,342.447 33.164,344.604 32.779,346.767C32.448,348.938 32.212,351.129 31.922,353.317C31.27,357.69 31.041,362.121 30.689,366.562C30.469,368.778 30.495,371.025 30.419,373.266C30.375,375.505 30.281,377.768 30.279,380.001C30.337,382.251 30.395,384.505 30.454,386.765L30.542,390.158L30.792,393.55C33.031,429.796 45.368,466.613 66.835,498.144C88.25,529.695 118.875,555.647 154.153,571.624C171.732,579.752 190.514,585.135 209.548,588.166L216.718,589.081C217.913,589.224 219.105,589.408 220.302,589.516L223.897,589.791C226.294,589.963 228.684,590.184 231.083,590.316C233.49,590.378 235.895,590.44 238.298,590.502C239.494,590.523 240.713,590.586 241.889,590.573L245.482,590.484C247.876,590.417 250.27,590.383 252.659,590.289C255.044,590.109 257.426,589.929 259.807,589.749C260.996,589.651 262.189,589.587 263.374,589.462L266.921,589.013C269.283,588.705 271.649,588.435 274.002,588.096C276.343,587.679 278.681,587.263 281.017,586.847C282.183,586.627 283.358,586.457 284.514,586.198L287.976,585.401C290.279,584.855 292.596,584.373 294.88,583.776C299.412,582.451 303.993,581.32 308.412,579.714C310.629,578.94 312.879,578.262 315.061,577.411C317.241,576.553 319.417,575.696 321.591,574.841C323.785,574.034 325.88,573.002 328.009,572.062L331.19,570.626C332.253,570.156 333.31,569.674 334.334,569.126C336.4,568.069 338.463,567.014 340.523,565.961L342.067,565.171L343.57,564.31L346.571,562.587L349.567,560.867L351.059,560.002L352.51,559.073C354.444,557.835 356.375,556.598 358.302,555.365C359.277,554.766 360.209,554.104 361.136,553.437L363.926,551.455C365.772,550.119 367.674,548.866 369.429,547.424C371.214,546.023 372.996,544.624 374.774,543.228C375.677,542.548 376.521,541.797 377.374,541.059L379.929,538.848C383.396,535.972 386.57,532.805 389.811,529.742C390.633,528.988 391.397,528.178 392.163,527.371L394.464,524.96C395.976,523.336 397.575,521.8 398.984,520.097C400.431,518.429 401.873,516.765 403.313,515.105L404.392,513.861L405.41,512.57L407.439,509.991C412.937,503.191 417.705,495.959 422.247,488.73C426.554,481.358 430.656,473.966 433.988,466.333C440.845,451.166 445.804,435.629 448.74,420.238C451.722,404.856 452.929,389.686 452.6,375.156C452.546,373.34 452.492,371.533 452.439,369.736C452.391,367.939 452.357,366.15 452.153,364.382C451.832,360.84 451.515,357.336 451.201,353.873C450.683,350.434 450.17,347.035 449.664,343.678C449.536,342.839 449.409,342.002 449.283,341.168C449.109,340.342 448.935,339.52 448.761,338.699C448.411,337.059 448.064,335.428 447.719,333.809C447.374,332.189 447.031,330.58 446.69,328.981C446.259,327.404 445.83,325.838 445.404,324.282C444.974,322.727 444.547,321.183 444.123,319.649C443.696,318.116 443.308,316.583 442.763,315.11C441.749,312.141 440.749,309.214 439.764,306.331C439.31,304.875 438.681,303.497 438.127,302.103C437.559,300.714 436.996,299.337 436.437,297.97C435.878,296.603 435.324,295.247 434.774,293.902C434.187,292.573 433.535,291.287 432.927,289.994C431.691,287.417 430.476,284.884 429.282,282.396C427.947,279.981 426.636,277.609 425.349,275.282C424.706,274.118 424.069,272.966 423.438,271.824C422.744,270.72 422.056,269.627 421.376,268.545C420.012,266.383 418.675,264.265 417.367,262.192C416.03,260.139 414.572,258.23 413.229,256.31C411.847,254.418 410.579,252.507 409.193,250.756C407.792,249.016 406.426,247.319 405.096,245.667C404.431,244.841 403.774,244.026 403.127,243.222C402.803,242.82 402.482,242.421 402.163,242.024C401.822,241.646 401.483,241.272 401.147,240.899C399.801,239.41 398.494,237.965 397.227,236.563C395.947,235.173 394.76,233.777 393.517,232.518C392.257,231.275 391.04,230.074 389.866,228.917C385.272,224.179 380.925,220.624 377.538,217.591C377.111,217.216 376.697,216.851 376.295,216.498C375.875,216.166 375.468,215.845 375.074,215.535C374.284,214.917 373.547,214.34 372.865,213.806C371.5,212.737 370.351,211.838 369.426,211.114C367.574,209.674 366.62,208.926 366.62,208.926Z" style="fill:white;fill-rule:nonzero;"/>
                </g>
            </g>
        </g>
    </g>
</svg>
