<?xml version="1.0" encoding="UTF-8" standalone="no"?>
<!DOCTYPE svg PUBLIC "-//W3C//DTD SVG 1.1//EN" "http://www.w3.org/Graphics/SVG/1.1/DTD/svg11.dtd">
<svg width="100%" height="100%" viewBox="0 0 919 704" version="1.1" xmlns="http://www.w3.org/2000/svg" xmlns:xlink="http://www.w3.org/1999/xlink" xml:space="preserve" xmlns:serif="http://www.serif.com/" style="fill-rule:evenodd;clip-rule:evenodd;stroke-linejoin:round;stroke-miterlimit:1.41421;">
    <g id="wings-complete" transform="matrix(1,0,0,1,-102.948,-199.124)">
        <path d="M466.568,620.51C450.175,617.669 435.215,610.626 422.841,600.532C416.145,592.266 409.136,584.264 401.833,576.545C401.188,575.863 399.218,573.805 399.218,573.805C349.997,522.722 287.728,484.296 217.802,463.917C150.926,394.513 108.135,301.742 102.948,199.124C204.609,296.347 336.985,361.715 483.97,379.124C482.922,392.983 483.201,409.013 474.305,421.398C471.134,425.812 466.651,429.025 461.721,431.233C458.569,432.618 457.898,432.978 455.804,435.363C453.616,437.853 452.563,441.091 452.097,444.418C452.093,444.449 451.973,446.653 451.972,446.676C451.87,448.571 451.777,450.466 451.692,452.362C449.169,508.773 454.182,565.458 466.568,620.51ZM639.912,379.367C786.903,362.424 919.387,297.532 1021.3,200.75C1015.75,302.723 973.056,394.88 906.534,463.917C836.607,484.297 774.339,522.722 725.118,573.805C725.118,573.805 723.095,575.919 722.503,576.545C715.199,584.264 708.19,592.266 701.495,600.532C689.122,610.624 674.164,617.668 657.774,620.509C670.526,563.857 675.51,505.286 672.364,446.676C672.363,446.652 672.243,444.451 672.239,444.418C671.938,442.248 671.502,440.07 670.473,438.156C669.081,435.569 668.334,435.197 666.221,433.231L663.399,431.575C653.51,427.142 646.993,418.363 644.37,408.449C641.798,398.726 640.998,388.899 639.912,379.367Z" style="fill:white;"/>
    </g>
    <g id="tail-complete" transform="matrix(1,0,0,1,-102.948,-199.124)">
        <path d="M480.594,672.414C482.49,678.398 484.476,684.355 486.553,690.281L486.508,690.114C487.611,694.118 489,698.04 490.743,701.85L490.487,701.198C490.487,701.198 491.238,702.918 491.238,702.918C506.278,734.567 542.984,752.824 576.596,746.556C601.102,741.986 622.853,724.988 633.378,702.318C633.378,702.318 633.846,701.205 633.846,701.205L633.593,701.85L633.676,701.665C634.672,699.457 635.566,697.204 636.352,694.912C637.071,692.817 637.867,690.04 637.867,690.04C638.857,687.204 639.83,684.363 640.781,681.514C641.785,678.505 642.767,675.488 643.725,672.464C690.405,674.632 736.609,678.641 782.263,684.418C768.952,794.182 685.417,882.426 577.983,902.821C577.475,873.346 571.928,845.09 562.168,818.876C552.408,845.09 546.861,873.346 546.353,902.821C438.875,882.417 355.316,794.11 342.056,684.283C387.712,678.534 433.915,674.554 480.594,672.414Z" style="fill:white;"/>
    </g>
    <g transform="matrix(1,0,0,1,-102.948,-199.124)">
        <path d="M619.773,696.001C609.724,717.766 587.698,732.885 562.168,732.885C536.638,732.885 514.612,717.766 504.563,696.001L504.558,696.001L504.538,695.948C503.049,692.717 501.824,689.339 500.892,685.843C478.302,621.507 466.053,552.606 466.053,480.974C466.053,468.991 466.396,457.084 467.073,445.262C498.542,431.819 496.28,400.016 499.242,376.211C503.133,344.932 529.842,320.692 562.168,320.692C594.494,320.692 621.203,344.932 625.094,376.211C628.039,399.88 625.708,431.24 657.263,445.262C657.94,457.084 658.282,468.991 658.282,480.974C658.282,552.606 646.034,621.507 623.444,685.843C622.511,689.339 621.286,692.717 619.797,695.948L619.778,696.001L619.773,696.001ZM593.081,387.624C593.605,391.663 593.875,395.78 593.875,399.96C593.875,428.106 581.624,453.413 562.168,470.835C542.712,453.413 530.461,428.106 530.461,399.96C530.461,395.78 530.731,391.663 531.255,387.624C540.417,404.78 550.758,421.212 562.168,436.814C573.578,421.212 583.919,404.78 593.081,387.624Z" style="fill:white;"/>
    </g>
</svg>
