<?xml version="1.0" encoding="UTF-8" standalone="no"?>
<!DOCTYPE svg PUBLIC "-//W3C//DTD SVG 1.1//EN" "http://www.w3.org/Graphics/SVG/1.1/DTD/svg11.dtd">
<svg width="100%" height="100%" viewBox="0 0 480 241" version="1.1" xmlns="http://www.w3.org/2000/svg" xmlns:xlink="http://www.w3.org/1999/xlink" xml:space="preserve" xmlns:serif="http://www.serif.com/" style="fill-rule:evenodd;clip-rule:evenodd;stroke-linejoin:round;stroke-miterlimit:1.41421;">
    <g transform="matrix(1,0,0,1,-2143.22,-136.289)">
        <g transform="matrix(0.842105,0,0,0.820513,1413.11,-78.4475)">
            <g transform="matrix(0.782108,0,0,0.802689,760.868,6.61519)">
                <path d="M864.5,317.8C862.8,321.9 861.1,325.8 859.4,329.8C858.8,331.1 858.2,332.4 857.6,333.7C856.5,336 855.4,338.4 854.3,340.7C854.1,341.1 853.9,341.6 853.7,342C852.7,344.1 851.6,346.3 850.5,348.4C850.2,349 849.9,349.6 849.6,350.2C849.1,351.2 848.6,352.2 848,353.2C847.5,354.2 846.9,355.2 846.4,356.2C846.1,356.9 845.7,357.5 845.3,358.2C844.8,359.2 844.2,360.1 843.7,361.1C843.2,362.1 842.6,363 842.1,364C842.1,364 842,364.1 842,364.2C841.7,364.7 841.4,365.2 841.1,365.7C840.7,366.3 840.3,367 840,367.6C839.4,368.7 838.7,369.8 838,370.9C837.1,372.4 836.2,373.9 835.3,375.3C834.6,376.4 833.9,377.5 833.3,378.6C833.3,378.6 833.3,378.7 833.2,378.7C832.7,379.4 832.3,380.1 831.8,380.9L831.7,381C831,382.1 830.3,383.2 829.6,384.3C828.9,385.4 828.1,386.6 827.4,387.7C825.4,390.7 823.4,393.7 821.3,396.6C819.2,399.5 817.1,402.4 814.9,405.3C813.4,407.3 811.9,409.2 810.4,411.1C809.7,412 809,412.9 808.3,413.8C806.5,416 804.8,418.2 803,420.4C802,421.7 800.9,423 799.8,424.2C799.1,425.1 798.3,426 797.6,426.8C796.7,427.9 795.7,428.9 794.8,430C793.9,431.1 792.9,432.1 792,433.2C791.1,434.2 790.1,435.3 789.2,436.3C788.8,436.7 788.4,437.1 788.1,437.5C788.1,437.6 788,437.6 787.9,437.7C787.8,437.8 787.7,437.9 787.6,438C787.6,438.1 787.5,438.1 787.4,438.2C786.5,439.2 785.4,440 784.3,440.8C784.1,440.9 783.9,441.1 783.7,441.2C776.2,446.2 768,449.6 759.5,451.5C739.3,456.1 717.6,452 700.1,439.4C699.3,447.9 701.1,456.1 704.8,463.2C706.1,465 707.3,467 708.4,469C714.5,477.2 723.5,483.3 734.2,485.5C733.5,486.1 732.7,486.6 732,487.1C731,487.9 729.9,488.6 728.8,489.4C728,489.9 727.3,490.5 726.5,491C724.8,492.2 723,493.4 721.3,494.6C719.5,495.8 717.7,497 715.9,498.2C715,498.8 714.2,499.3 713.3,499.9C699.2,507.3 683.9,511.2 668.5,511.6C651.5,512.1 634.4,508.5 618.9,500.6C618.6,500.4 618.2,500.3 617.9,500.1C620.6,515.4 630.5,528.4 644.5,535.2C642.3,536.1 640,536.9 637.8,537.8C636.9,538.1 636,538.5 635,538.8C634.9,538.8 634.8,538.9 634.7,538.9C633.7,539.2 632.7,539.6 631.8,539.9C630.5,540.4 629.2,540.8 627.8,541.3C626.3,541.8 624.7,542.4 623.2,542.9C621.7,543.4 620.1,543.9 618.6,544.4C616.9,544.9 615.3,545.4 613.6,545.9C606.1,548.2 598.5,550.2 590.8,552C590.7,552 590.7,552 590.6,552.1C590.5,552.1 590.4,552.1 590.4,552.1C588.8,552.5 587.1,552.6 585.4,552.6C585.1,552.6 584.8,552.6 584.6,552.6C567.2,551.9 550.3,546.6 535.8,537.4C533.8,536.1 531.1,536.3 529.3,537.9C527.5,539.5 526.9,542.1 528,544.3L535.8,561.1L535.7,561.1L546.2,583.7L556.1,605C560.2,613.7 558.3,624.1 551.5,630.9L500,682.3L448.3,630.6C441.7,624 440,614.1 443.9,605.6L454.1,583.8L464.6,561.2L472.4,544.5C473.4,542.3 472.9,539.7 471.1,538.1C469.3,536.5 466.6,536.3 464.6,537.6C449.8,547 432.7,552.3 415,552.9C413.3,553 411.6,552.8 409.9,552.4C409.9,552.4 409.8,552.4 409.7,552.4C409.6,552.4 409.6,552.4 409.5,552.3C401.8,550.5 394.2,548.5 386.7,546.2C385,545.7 383.4,545.2 381.7,544.7C380.1,544.2 378.6,543.7 377,543.2C375.5,542.7 373.9,542.2 372.4,541.6C371.1,541.1 369.8,540.7 368.4,540.2C367.4,539.8 366.4,539.5 365.5,539.2C365.4,539.2 365.3,539.1 365.2,539.1C364.3,538.8 363.4,538.4 362.4,538.1C360.1,537.3 357.9,536.4 355.7,535.5C369.7,528.7 379.5,515.7 382.3,500.4C382,500.6 381.6,500.7 381.3,500.9C365.7,508.7 348.6,512.4 331.7,511.9C316.3,511.4 300.9,507.5 286.8,500.2C285.9,499.7 285.1,499.1 284.2,498.5C282.4,497.3 280.6,496.1 278.8,494.9C277,493.7 275.3,492.5 273.6,491.3C272.8,490.8 272.1,490.2 271.3,489.7C270.2,488.9 269.2,488.2 268.1,487.4C267.4,486.9 266.6,486.3 265.9,485.8C276.6,483.5 285.6,477.5 291.7,469.2C292.8,467.2 294,465.2 295.3,463.4C299,456.3 300.8,448.1 300,439.6C282.5,452.2 260.8,456.3 240.6,451.7C232.1,449.8 223.9,446.4 216.4,441.4C216.2,441.3 216,441.1 215.7,441C214.6,440.2 213.5,439.4 212.6,438.4L211.9,437.7C211.5,437.3 211.2,436.9 210.9,436.6C209.9,435.6 209,434.5 208.1,433.5C207.1,432.5 206.2,431.4 205.3,430.3C204.4,429.3 203.4,428.2 202.5,427.1C201.7,426.2 201,425.4 200.3,424.5C199.2,423.2 198.1,422 197.1,420.7C195.3,418.5 193.5,416.3 191.8,414.1C189.6,411.3 187.4,408.4 185.2,405.6C183,402.7 180.9,399.8 178.8,396.9C176.7,394 174.7,391 172.7,388C171.9,386.9 171.2,385.7 170.5,384.6C169.8,383.5 169.1,382.4 168.4,381.3C167.9,380.5 167.4,379.7 166.9,378.9C166.2,377.8 165.5,376.7 164.9,375.6C164.9,375.5 164.8,375.4 164.7,375.3C163.8,373.9 163,372.5 162.2,371.1C161.5,370 160.9,368.9 160.2,367.8C160,367.5 159.9,367.2 159.7,366.9C159.5,366.5 159.3,366.2 159.1,365.8C158.8,365.3 158.5,364.8 158.2,364.3C157.6,363.3 157,362.3 156.5,361.2C156,360.2 155.4,359.3 154.9,358.3C154.5,357.6 154.2,357 153.8,356.3C153.3,355.3 152.7,354.3 152.2,353.3C151.7,352.3 151.1,351.3 150.6,350.3C150.3,349.7 150,349.1 149.7,348.5C146.6,342.4 143.6,336.2 140.8,329.9C139,326 137.3,322 135.7,318C222.8,319.7 309.3,333.1 392.7,357.8C395.8,358.7 398.8,359.6 401.9,360.6C416.6,365.1 431.2,370 445.7,375.2C445.8,375.2 445.9,375.2 445.9,375.3C446,375.3 446,375.3 446.1,375.4C451.1,377.3 455.2,381.1 457.4,386.1C457.4,386.2 457.5,386.2 457.5,386.3C457.5,386.4 457.6,386.4 457.6,386.5L468.2,411.1L490.1,462.1L500.1,485.5L500.1,485.4L510.2,461.9L532,411L535.5,402.9L539.4,393.8L542.6,386.4L542.6,386.3C544.8,381.3 548.9,377.3 554.1,375.4L554.2,375.4C554.3,375.4 554.3,375.4 554.4,375.3C559.2,373.6 564,371.9 568.8,370.2C578.6,366.8 588.4,363.7 598.2,360.7C601.3,359.8 604.3,358.8 607.4,357.9C616.2,355.3 625.1,352.8 633.9,350.4C649.8,346.2 665.8,342.4 681.8,339C698.6,335.4 715.6,332.3 732.6,329.6C736.6,329 740.5,328.4 744.5,327.8C746.4,327.5 748.4,327.2 750.3,327C763.2,325.2 776.2,323.7 789.1,322.4C814.1,319.7 839.3,318.2 864.5,317.8Z" style="fill:white;fill-rule:nonzero;"/>
                <path d="M472.8,381.6L500,436L516.2,403.5L524.9,386.1L529.2,377.4C534.2,367.4 533.7,355.4 527.8,345.9C521.9,336.4 511.5,330.5 500.3,330.5L500.2,330.5C488.8,330.5 478.3,336.4 472.3,346C466.3,355.7 465.8,367.7 470.9,377.9L472.8,381.6Z" style="fill:white;fill-rule:nonzero;"/>
            </g>
        </g>
    </g>
</svg>
