<?xml version="1.0" encoding="UTF-8" standalone="no"?>
<!DOCTYPE svg PUBLIC "-//W3C//DTD SVG 1.1//EN" "http://www.w3.org/Graphics/SVG/1.1/DTD/svg11.dtd">
<svg width="100%" height="100%" viewBox="0 0 512 512" version="1.1" xmlns="http://www.w3.org/2000/svg" xmlns:xlink="http://www.w3.org/1999/xlink" xml:space="preserve" xmlns:serif="http://www.serif.com/" style="fill-rule:evenodd;clip-rule:evenodd;stroke-linejoin:round;stroke-miterlimit:1.41421;">
    <g transform="matrix(1,0,0,1,-2803.22,-0.321762)">
        <g id="Icon" transform="matrix(0.842105,0,0,0.820513,2089.11,-78.4475)">
            <rect x="848" y="96" width="608" height="624" style="fill:none;"/>
            <g transform="matrix(1,0,0,1,-5.1152,14.6494)">
                <g transform="matrix(1.1875,0,0,1.21875,870.888,-70.3715)">
                    <path d="M270.343,431.513C269.708,435.881 269.147,439.845 267.265,443.466L288.452,486.019C297.442,480.201 300.5,474.764 300.5,474.764L300.5,474.471L270.343,431.513Z" style="fill:white;fill-rule:nonzero;"/>
                    <path d="M249.157,458.741L252.065,499.272C258.228,498.521 263.866,497.166 268.956,495.465L256.628,454.892C254.471,456.233 251.999,457.514 249.157,458.741Z" style="fill:white;fill-rule:nonzero;"/>
                    <path d="M258.661,453.538L271.165,494.691C277.124,492.517 282.277,489.893 286.579,487.272L266.292,445.885C264.462,448.636 261.998,451.176 258.661,453.538Z" style="fill:white;fill-rule:nonzero;"/>
                    <path d="M241.448,461.636C239.511,460.999 237.71,460.346 236.018,459.678L233.159,499.522C235.829,499.775 238.591,499.918 241.448,499.922C244.305,499.917 247.066,499.775 249.737,499.522L246.878,459.678C245.186,460.346 243.385,460.999 241.448,461.636Z" style="fill:white;fill-rule:nonzero;"/>
                    <path d="M210.605,431.513L178.5,474.473L178.5,474.766C178.5,474.766 184.282,480.203 193.272,486.021L214.131,443.468C212.248,439.845 211.24,435.881 210.605,431.513Z" style="fill:white;fill-rule:nonzero;"/>
                    <path d="M226.268,454.892L213.94,495.465C219.03,497.166 224.667,498.521 230.831,499.272L233.739,458.741C230.896,457.514 228.424,456.233 226.268,454.892Z" style="fill:white;fill-rule:nonzero;"/>
                    <path d="M216.603,445.886L196.316,487.273C200.618,489.894 205.771,492.518 211.73,494.692L224.234,453.539C220.897,451.176 218.433,448.636 216.603,445.886Z" style="fill:white;fill-rule:nonzero;"/>
                </g>
                <g transform="matrix(1.1875,0,0,1.21875,870.888,-70.3715)">
                    <path d="M284.381,354.581C284.432,356.077 284.435,357.611 284.39,359.182C313.396,358.899 351.241,356.927 393.339,350.73C399.684,340.036 404.322,329.57 407.045,319.733C401.612,322.064 395.998,324.232 390.193,326.223C349.901,340.049 312.983,348.952 284.381,354.581Z" style="fill:white;fill-rule:nonzero;"/>
                    <path d="M351.162,401.66C323.787,393.069 300.366,384.133 282.316,376.609C282.112,377.647 281.893,378.695 281.661,379.751C295.753,389.838 313.11,401.389 333.25,413.134C339.569,410.591 345.323,406.737 351.162,401.66Z" style="fill:white;fill-rule:nonzero;"/>
                    <path d="M284.244,362.301C284.152,363.722 284.027,365.168 283.864,366.643C307.683,371.294 338.235,376.104 372.994,378.939C380,370.699 386.109,362.389 391.235,354.187C349.928,360.125 312.811,362.029 284.244,362.301Z" style="fill:white;fill-rule:nonzero;"/>
                    <path d="M276.721,398.679C276.151,401.165 275.686,403.577 275.306,405.913C276.677,406.826 278.357,407.851 280.335,408.897C279.051,405.415 277.849,402.008 276.721,398.679Z" style="fill:white;fill-rule:nonzero;"/>
                    <path d="M367.934,384.709C368.792,383.761 369.635,382.81 370.47,381.859C336.628,379 306.848,374.299 283.476,369.742C283.305,370.97 283.112,372.214 282.895,373.474C301.33,381.177 325.511,390.41 353.862,399.235C358.344,395.08 362.937,390.229 367.934,384.709Z" style="fill:white;fill-rule:nonzero;"/>
                    <path d="M329.406,414.495C310.638,403.449 294.333,392.613 280.9,383.039C280.627,384.163 280.341,385.297 280.039,386.44C287.563,395.691 296.345,405.84 306.374,416.438C315.254,417.241 322.694,416.557 329.406,414.495Z" style="fill:white;fill-rule:nonzero;"/>
                    <path d="M301.53,415.834C293.116,406.816 285.611,398.152 279.025,390.124C278.844,390.754 278.659,391.387 278.47,392.022C278.361,392.389 278.259,392.752 278.155,393.117C280.001,398.784 282.068,404.709 284.389,410.85C288.989,412.878 294.719,414.763 301.53,415.834Z" style="fill:white;fill-rule:nonzero;"/>
                    <path d="M379.75,293.058C388.287,287.693 395.999,282.125 402.986,276.423C401.575,274.39 399.943,272.486 398.08,270.726C383.007,256.491 367.655,259.282 367.655,259.282C367.655,259.282 359.717,288.524 313.568,314.576C312.01,315.456 307.416,316.338 306.095,316.805C299.44,319.156 292.249,323.923 293.384,329.202C293.914,331.667 287.746,336.508 282.022,340.371C282.498,341.784 282.896,343.264 283.228,344.8C309.725,332.83 343.645,315.744 379.75,293.058Z" style="fill:white;fill-rule:nonzero;"/>
                    <path d="M283.802,347.961C283.969,349.092 284.099,350.253 284.198,351.439C312.617,345.83 349.227,336.982 389.181,323.272C395.817,320.995 402.079,318.527 408.013,315.908C411.263,301.753 410.358,289.058 404.662,279.079C397.473,284.93 389.724,290.475 381.409,295.7C344.856,318.668 310.518,335.925 283.802,347.961Z" style="fill:white;fill-rule:nonzero;"/>
                </g>
                <g transform="matrix(1.1875,0,0,1.21875,870.888,-70.3715)">
                    <path d="M198.514,354.581C198.463,356.077 198.46,357.611 198.505,359.182C169.499,358.899 131.654,356.927 89.556,350.73C83.211,340.036 78.573,329.57 75.85,319.733C81.283,322.064 86.897,324.232 92.702,326.223C132.995,340.049 169.912,348.952 198.514,354.581Z" style="fill:white;fill-rule:nonzero;"/>
                    <path d="M131.734,401.66C159.109,393.069 182.53,384.133 200.58,376.609C200.784,377.647 201.003,378.695 201.235,379.751C187.143,389.838 169.786,401.389 149.646,413.134C143.326,410.591 137.572,406.737 131.734,401.66Z" style="fill:white;fill-rule:nonzero;"/>
                    <path d="M198.651,362.301C198.743,363.722 198.868,365.168 199.031,366.643C175.212,371.294 144.66,376.104 109.901,378.939C102.895,370.699 96.786,362.389 91.66,354.187C132.967,360.125 170.084,362.029 198.651,362.301Z" style="fill:white;fill-rule:nonzero;"/>
                    <path d="M206.174,398.679C206.744,401.165 207.209,403.577 207.589,405.913C206.218,406.826 204.538,407.851 202.56,408.897C203.844,405.415 205.046,402.008 206.174,398.679Z" style="fill:white;fill-rule:nonzero;"/>
                    <path d="M114.962,384.709C114.104,383.761 113.261,382.81 112.426,381.859C146.268,379 176.048,374.299 199.42,369.742C199.591,370.97 199.784,372.214 200.001,373.474C181.566,381.177 157.385,390.41 129.034,399.235C124.551,395.08 119.958,390.229 114.962,384.709Z" style="fill:white;fill-rule:nonzero;"/>
                    <path d="M153.489,414.495C172.257,403.449 188.562,392.613 201.995,383.039C202.268,384.163 202.554,385.297 202.856,386.44C195.332,395.691 186.55,405.84 176.521,416.438C167.642,417.241 160.201,416.557 153.489,414.495Z" style="fill:white;fill-rule:nonzero;"/>
                    <path d="M181.366,415.834C189.78,406.816 197.285,398.152 203.871,390.124C204.052,390.754 204.237,391.387 204.426,392.022C204.535,392.389 204.637,392.752 204.741,393.117C202.895,398.784 200.829,404.709 198.507,410.85C193.907,412.878 188.177,414.763 181.366,415.834Z" style="fill:white;fill-rule:nonzero;"/>
                    <path d="M103.146,293.058C94.609,287.693 86.897,282.125 79.91,276.423C81.321,274.39 82.953,272.486 84.816,270.726C99.889,256.491 115.241,259.282 115.241,259.282C115.241,259.282 123.179,288.524 169.328,314.576C170.886,315.456 175.48,316.338 176.801,316.805C183.456,319.156 190.647,323.923 189.512,329.202C188.982,331.667 195.15,336.508 200.874,340.371C200.398,341.784 200,343.264 199.668,344.8C173.171,332.83 139.25,315.744 103.146,293.058Z" style="fill:white;fill-rule:nonzero;"/>
                    <path d="M199.093,347.961C198.926,349.092 198.796,350.253 198.697,351.439C170.278,345.83 133.668,336.982 93.714,323.272C87.078,320.995 80.816,318.527 74.882,315.908C71.632,301.753 72.537,289.058 78.233,279.079C85.422,284.93 93.171,290.475 101.486,295.7C138.039,318.668 172.378,335.925 199.093,347.961Z" style="fill:white;fill-rule:nonzero;"/>
                </g>
                <g transform="matrix(1.1875,0,0,1.21875,870.888,-70.3715)">
                    <path d="M254.738,326.458C253.091,319.577 248.194,314.575 242.414,314.575C242.092,314.575 241.763,314.575 241.448,314.612C241.134,314.575 240.804,314.575 240.482,314.575C234.702,314.575 229.805,319.577 228.158,326.458C201.016,329.408 197.224,356.202 207.755,391.554C218.237,426.745 202.333,446.212 241.449,459.068C280.565,446.212 264.66,426.745 275.143,391.554C285.672,356.202 281.88,329.408 254.738,326.458ZM244.789,330.351C244.753,330.825 244.686,331.286 244.636,331.755C244.514,332.686 244.349,333.602 244.163,334.513C243.783,336.332 243.302,338.117 242.735,339.875L241.453,343.848L240.162,339.874C239.591,338.117 239.111,336.331 238.73,334.512C238.544,333.601 238.379,332.684 238.257,331.753C238.15,330.817 238.034,329.884 238.036,328.912C238.607,329.698 239.059,330.522 239.521,331.344C239.968,332.17 240.372,333.102 240.754,333.949C241.002,334.505 241.223,335.08 241.45,335.651C241.677,335.08 241.898,334.505 242.146,333.95C242.529,333.103 242.933,332.217 243.379,331.391C243.614,330.981 243.831,330.544 244.079,330.139C244.325,329.733 244.576,329.317 244.86,328.924C244.861,329.409 244.827,329.878 244.789,330.351Z" style="fill:white;fill-rule:nonzero;"/>
                </g>
            </g>
        </g>
    </g>
</svg>
